# xmcd
#
# Track frame offsets:
#	150
#	30553
#	50623
#	74534
#	93209
#	109543
#	128573
#	144809
#	163444
#	181925
#
# Disc length: 2701 seconds
#
# Revision: 1
# Processed by: cddbd v1.5.2PL0 Copyright (c) Steve Scherf et al.
# Submitted via: EZCDAudioConverter 8.0.2.1
#
DISCID=810a8b0a
DTITLE=Various Artist - Áo Anh Sứt Chỉ Đường Tà
DYEAR=2010
DGENRE=
TTITLE0=Quốc Khanh - Áo Anh Sứt Chỉ Đường Tà
TTITLE1=Thiên Kim - Hát cho người nằm xuống
TTITLE2=Y Phương All Singers - Người về
TTITLE3=Diễm Liên, Nguyên Khang - Lệ đá
TTITLE4=Đoàn Phi, Ánh Minh - Lính dù lên điểm
TTITLE5=Hồ Hoàng Yến - Bão tình
TTITLE6=Phillip Huy - Thuở ban đầu
TTITLE7=Lâm Thúy Vân - Bài tình ca cho em
TTITLE8=Cardin, Thùy Hương - Cái trâm em cài
TTITLE9=Lâm Nhật Tiến, nguyễn Hồng Nhung - Em có còn yêu anh
EXTD=
EXTT0=
EXTT1=
EXTT2=
EXTT3=
EXTT4=
EXTT5=
EXTT6=
EXTT7=
EXTT8=
EXTT9=
PLAYORDER=
